#N canvas 434 129 766 438 10;
#X obj 321 23 vsl 15 128 0 1 0 0 empty empty empty 0 -9 0 10 -262144
-1 -1 12700 1;
#X obj 403 23 vsl 15 128 0 1 0 0 empty empty empty 0 -9 0 10 -262144
-1 -1 9800 1;
#X obj 492 24 vsl 15 128 0 1 0 0 empty empty empty 0 -9 0 10 -262144
-1 -1 4300 1;
#X obj 595 23 vsl 15 128 0 1 0 0 empty empty empty 0 -9 0 10 -262144
-1 -1 0 1;
#X obj 361 156 vsl 15 128 0 5000 0 0 empty empty empty 0 -9 0 10 -262144
-1 -1 250 1;
#X obj 453 155 vsl 15 128 0 5000 0 0 empty empty empty 0 -9 0 10 -262144
-1 -1 1600 1;
#X floatatom 452 293 5 0 0 0 - - -, f 5;
#X floatatom 360 293 5 0 0 0 - - -, f 5;
#X floatatom 321 161 5 0 0 0 - - -, f 5;
#X floatatom 403 161 5 0 0 0 - - -, f 5;
#X floatatom 492 163 5 0 0 0 - - -, f 5;
#X floatatom 595 165 5 0 0 0 - - -, f 5;
#X text 341 23 atk level;
#X text 422 23 decay level;
#X text 509 24 sustain level;
#X text 613 25 release level;
#X text 301 218 atk time;
#X text 385 219 decay time;
#X text 470 220 sustain time;
#X text 567 220 release time;
#X text 348 71 1;
#X text 431 70 2;
#X text 526 73 3;
#X text 628 72 4;
#X text 307 249 5;
#X text 391 248 6;
#X text 490 246 7;
#X obj 68 352 outlet;
#X obj 114 354 outlet;
#X obj 161 355 outlet;
#X obj 209 356 outlet;
#X obj 260 355 outlet;
#X obj 306 357 outlet;
#X obj 353 358 outlet;
#X obj 401 359 outlet;
#X obj 549 156 vsl 15 128 0 5000 0 0 empty empty empty 0 -9 0 10 -262144
-1 -1 2100 1;
#X obj 641 155 vsl 15 128 0 5000 0 0 empty empty empty 0 -9 0 10 -262144
-1 -1 450 1;
#X floatatom 640 293 5 0 0 0 - - -, f 5;
#X floatatom 548 293 5 0 0 0 - - -, f 5;
#X text 579 248 6;
#X obj -10 14 inlet bang;
#X obj 18 42 bng 15 250 50 0 empty empty empty 17 7 0 10 -262144 -1
-1;
#X text 73 132 de cada parametro de la envolvente;
#X text 72 155 ten en cuenta que el nivel va de 0 - 1;
#X text 73 114 Selecciona el tiempo y el nivel;
#X text 72 173 y el tiempo de 0 a 5000 milisegundos;
#X text 72 190 la entrada es un bang que activa vline~;
#X text 72 208 conecta en el orden que aparecen con;
#X text 74 230 el modulo de envolvente;
#X connect 0 0 8 0;
#X connect 0 0 27 0;
#X connect 1 0 9 0;
#X connect 1 0 28 0;
#X connect 2 0 10 0;
#X connect 2 0 29 0;
#X connect 3 0 11 0;
#X connect 3 0 30 0;
#X connect 4 0 7 0;
#X connect 4 0 31 0;
#X connect 5 0 6 0;
#X connect 5 0 32 0;
#X connect 35 0 38 0;
#X connect 35 0 33 0;
#X connect 36 0 37 0;
#X connect 36 0 34 0;
#X connect 40 0 41 0;
#X connect 41 0 27 0;
#X coords 0 -1 1 1 654 317 1 63 11;
