#N canvas 284 329 450 323 10;
#X obj 186 228 dac~;
#X obj 190 175 *~;
#X obj 108 115 inlet~ señal;
#X obj 227 116 inlet~ envolvente;
#X obj 312 205 vu 15 120 empty empty -1 -8 0 10 -66577 -1 1 0;
#X obj 313 173 pvu~;
#X connect 1 0 0 0;
#X connect 1 0 0 1;
#X connect 1 0 5 0;
#X connect 2 0 1 0;
#X connect 3 0 1 1;
#X connect 5 0 4 0;
#X connect 5 1 4 1;
#X coords 0 -1 1 1 95 139 1 281 195;
