#N canvas 219 187 803 489 10;
#X obj 174 109 osc~;
#X obj 328 64 inlet frecuencia;
#X obj 336 297 outlet~ onda;
#X obj 211 108 phasor~;
#X obj 266 108 noise~;
#X obj 155 -4 cnv 15 100 60 empty empty empty 20 12 0 14 -233017 -66577
0;
#X obj 239 212 *~ 0;
#X obj 192 217 *~ 0;
#X obj 281 213 *~ 0;
#X obj 177 347 == 0;
#X obj 178 383 == 0;
#X obj 282 343 == 2;
#X obj 283 379 == 2;
#X obj 229 381 == 0;
#X obj 228 345 == 1;
#X obj 350 97 vradio 59 0 0 3 empty empty empty 0 -8 0 10 -262144 -1
-1 0;
#X obj 133 283 sel 0 1 2;
#X text 418 120 Seno;
#X text 417 175 Sierra;
#X text 417 235 noise;
#X text 511 154 Escoge tu tipo;
#X text 511 186 de onda \, la entrada;
#X text 507 215 es la frecuencia o;
#X text 507 247 nota midi \, y la salida;
#X text 508 277 conecta al modulo dac;
#X obj 57 145 loadbang;
#X msg 51 202 0;
#X connect 0 0 7 0;
#X connect 1 0 0 0;
#X connect 1 0 3 0;
#X connect 1 0 6 0;
#X connect 3 0 6 0;
#X connect 4 0 8 0;
#X connect 6 0 2 0;
#X connect 7 0 2 0;
#X connect 8 0 2 0;
#X connect 9 0 10 0;
#X connect 10 0 6 1;
#X connect 10 0 8 1;
#X connect 11 0 12 0;
#X connect 12 0 6 1;
#X connect 12 0 7 1;
#X connect 13 0 7 1;
#X connect 13 0 8 1;
#X connect 14 0 13 0;
#X connect 15 0 16 0;
#X connect 16 0 9 0;
#X connect 16 1 14 0;
#X connect 16 2 11 0;
#X connect 25 0 26 0;
#X connect 26 0 15 0;
#X coords 0 -1 1 1 324 267 2 326 57;
