#N canvas 222 60 968 572 10;
#X obj 109 257 / 100;
#X obj 237 261 / 100;
#X obj 368 261 / 100;
#X obj 321 193 inlet~;
#X obj 275 191 inlet~;
#X obj 193 191 inlet~;
#X obj 149 191 inlet~;
#X obj 63 190 inlet~;
#X obj 16 189 inlet~;
#X obj 109 192 inlet;
#X obj 237 191 inlet;
#X obj 368 194 inlet;
#X text 21 97 Carrier Modulador IndiceModulacion;
#X text 23 59 Carrier Modulador IndiceModulacion +;
#X text 21 78 Carrier Modulador IndiceModulacion +;
#X obj 71 356 outlet~;
#X obj 22 318 expr~ ($v1 + ($v2 * $f3)) + ($v4 + ($v5 * $f6)) + ($v7
+ ($v8 * $f9));
#X obj 351 164 loadbang;
#X msg 302 161 0;
#X obj 268 56 vsl 16 62 10 1000 0 0 empty empty IndiceModulacion1 0
-9 0 10 -262144 -1 -1 0 1;
#X obj 362 70 vsl 16 62 10 1000 0 0 empty empty IndiceModulacion2 0
-9 0 10 -262144 -1 -1 0 1;
#X obj 445 88 vsl 16 62 10 1000 0 0 empty empty IndiceModulacion3 0
-9 0 10 -262144 -1 -1 0 1;
#X floatatom 265 131 5 0 0 0 - - -, f 5;
#X floatatom 372 141 5 0 0 0 - - -, f 5;
#X floatatom 470 139 5 0 0 0 - - -, f 5;
#X text 25 125 Puedes usar estos indices o ingresa;
#X text 24 143 tu propio control;
#X connect 0 0 16 2;
#X connect 1 0 16 5;
#X connect 2 0 16 8;
#X connect 3 0 16 7;
#X connect 4 0 16 6;
#X connect 5 0 16 4;
#X connect 6 0 16 3;
#X connect 7 0 16 1;
#X connect 8 0 16 0;
#X connect 9 0 0 0;
#X connect 10 0 1 0;
#X connect 11 0 2 0;
#X connect 16 0 15 0;
#X connect 17 0 18 0;
#X connect 18 0 16 0;
#X connect 18 0 16 1;
#X connect 18 0 16 2;
#X connect 18 0 16 3;
#X connect 18 0 16 4;
#X connect 18 0 16 5;
#X connect 18 0 16 7;
#X connect 18 0 16 8;
#X connect 19 0 0 0;
#X connect 19 0 22 0;
#X connect 20 0 1 0;
#X connect 20 0 23 0;
#X connect 21 0 2 0;
#X connect 21 0 24 0;
#X coords 0 -1 1 1 539 132 1 18 36;
