#N canvas 0 23 1320 700 10;
#X obj 249 -970 inlet;
#X obj 361 -974 inlet;
#X obj 468 -968 inlet;
#X obj 587 -971 inlet;
#X obj 715 -968 inlet;
#X obj 855 -966 inlet;
#X obj 598 -611 loadbang;
#X text 234 -698 - int1 : nivel del ataque 0 - 1;
#X text 243 -720 -Mensaje de ataque :;
#X text 231 -671 - int2 : tiempo en milisegundos atk;
#X text 460 -722 -Mensaje de decay :;
#X text 694 -726 -Mensaje de sustain :;
#X text 947 -721 -Mensaje de release :;
#X obj 785 -966 inlet;
#X obj 932 -967 inlet;
#X obj 777 -404 vline~;
#X obj 777 -382 outlet~;
#X obj 1106 -947 bng 56 250 50 0 empty empty empty 17 7 0 10 -262144
-1 -1;
#X obj 719 -610 r envo;
#X msg 719 -588 \$1 \$2 \, \$3 \$4 \$5 \, \$6 \$7 \$8 \, \$9 \$10 \$11
;
#X obj 862 -521 print 1;
#X obj 388 -516 print 3;
#X msg 391 -570 1 1000 \, 0 0 1000 \, 1 1000 1000 \, 1 2000 3000;
#X obj 567 -837 pack 0 0 0 0 0 0 0 0 0 0 0;
#X obj 581 -795 s envo;
#X obj 717 -885 +;
#X obj 730 -921 t f f;
#X obj 807 -877 t f f;
#X obj 816 -843 +;
#X text 248 -988 attack level;
#X text 361 -989 decay level;
#X text 461 -991 sustain level;
#X text 582 -988 release level;
#X text 704 -992 att time;
#X text 773 -994 decay time;
#X text 847 -994 sust time;
#X text 924 -995 release time;
#X text 452 -701 - int3 : nivel del decay 0 - 1;
#X text 452 -676 - int4 : tiempo en milisegundos decay;
#X text 453 -651 - int5 : tiempo en milisegundos atk;
#X text 686 -705 - int6 : nivel del sustain 0 - 1;
#X text 686 -680 - int7 : tiempo en milisegundos sustain;
#X text 682 -651 - int8 : tiempo en milisegundos atk+decay;
#X text 939 -700 - int9 : nivel del release 0 - 1;
#X text 939 -675 - int10 : tiempo en milisegundos release;
#X text 941 -647 - int11 : tiempo en milisegundos atk+decay+sustain
;
#X connect 0 0 17 0;
#X connect 0 0 23 0;
#X connect 1 0 17 0;
#X connect 1 0 23 2;
#X connect 2 0 17 0;
#X connect 2 0 23 5;
#X connect 3 0 17 0;
#X connect 3 0 23 8;
#X connect 4 0 17 0;
#X connect 4 0 23 1;
#X connect 4 0 23 4;
#X connect 4 0 26 0;
#X connect 5 0 17 0;
#X connect 5 0 23 6;
#X connect 5 0 27 0;
#X connect 6 0 22 0;
#X connect 13 0 17 0;
#X connect 13 0 23 3;
#X connect 13 0 26 0;
#X connect 14 0 17 0;
#X connect 14 0 23 9;
#X connect 15 0 16 0;
#X connect 17 0 23 0;
#X connect 18 0 19 0;
#X connect 19 0 15 0;
#X connect 19 0 20 0;
#X connect 22 0 21 0;
#X connect 22 0 15 0;
#X connect 23 0 24 0;
#X connect 25 0 23 7;
#X connect 25 0 27 0;
#X connect 26 0 25 0;
#X connect 26 1 25 1;
#X connect 27 0 28 0;
#X connect 27 1 28 1;
#X connect 28 0 23 10;
