#N canvas 461 95 450 300 10;
#X obj 50 155 expr~ $v1 * $v2 * $v3 * $v4 * $v5 * $v6;
#X obj 44 80 inlet~;
#X obj 88 80 inlet~;
#X obj 133 81 inlet~;
#X obj 177 81 inlet~;
#X obj 222 81 inlet~;
#X obj 269 80 inlet~;
#X obj 48 203 outlet~;
#X text 105 228 Puedes introducir 6 señales para;
#X text 106 249 realizar modulacion de anillo;
#X text 108 271 entre ellas;
#X msg 345 139 loadband;
#X obj 349 101 loadbang;
#X msg 354 190 1;
#X connect 0 0 7 0;
#X connect 1 0 0 0;
#X connect 2 0 0 1;
#X connect 3 0 0 2;
#X connect 4 0 0 3;
#X connect 5 0 0 4;
#X connect 6 0 0 5;
#X connect 12 0 13 0;
#X connect 13 0 0 3;
#X connect 13 0 0 4;
#X connect 13 0 0 5;
#X connect 13 0 0 2;
#X connect 13 0 0 1;
#X connect 13 0 0 0;
#X coords 0 -1 1 1 204 99 1 101 209;
