#N canvas 0 24 1920 1005 10;
#X obj 18 22 controlfreq;
#X obj 26 146 moduloonda;
#X obj 737 1112 modulodac;
#X obj 476 15 controlenvolvente;
#X obj 738 395 moduloenv;
#X obj 1299 1292 modulofm;
#X obj 252 1132 moduloring;
#X obj 19 431 controlfreq;
#X obj 27 558 moduloonda;
#X obj 1149 19 controlfreq;
#X obj 1157 146 moduloonda;
#X obj 1314 433 controlfreq;
#X obj 1322 560 moduloonda;
#X obj 489 434 controlfreq;
#X obj 499 570 moduloonda;
#X obj 847 566 controlfreq;
#X obj 855 693 moduloonda;
#X connect 0 0 3 0;
#X connect 0 0 1 0;
#X connect 1 0 6 0;
#X connect 3 0 4 0;
#X connect 3 1 4 1;
#X connect 3 2 4 2;
#X connect 3 3 4 3;
#X connect 3 4 4 4;
#X connect 3 5 4 5;
#X connect 3 6 4 6;
#X connect 3 7 4 7;
#X connect 4 0 2 1;
#X connect 5 0 2 0;
#X connect 7 0 3 0;
#X connect 7 0 8 0;
#X connect 8 0 6 1;
#X connect 9 0 3 0;
#X connect 9 0 10 0;
#X connect 10 0 6 4;
#X connect 11 0 3 0;
#X connect 11 0 12 0;
#X connect 12 0 6 5;
#X connect 12 0 5 3;
#X connect 12 0 5 6;
#X connect 13 0 3 0;
#X connect 13 0 14 0;
#X connect 14 0 6 3;
#X connect 14 0 5 0;
#X connect 14 0 5 4;
#X connect 15 0 3 0;
#X connect 15 0 16 0;
#X connect 16 0 6 2;
#X connect 16 0 5 1;
#X connect 16 0 5 7;
